<svg xmlns="http://www.w3.org/2000/svg" xmlns:xlink="http://www.w3.org/1999/xlink" width="500" zoomAndPan="magnify" viewBox="0 0 375 374.999991" height="500" preserveAspectRatio="xMidYMid meet" version="1.0"><defs><g/><clipPath id="0d7b112ffa"><path d="M 121 125 L 216 125 L 216 220 L 121 220 Z M 121 125 " clip-rule="nonzero"/></clipPath><clipPath id="858a60a5a8"><path d="M 140.449219 232.597656 L 108.089844 144.609375 L 196.082031 112.253906 L 228.4375 200.242188 Z M 140.449219 232.597656 " clip-rule="nonzero"/></clipPath><clipPath id="edff4e3891"><path d="M 140.449219 232.597656 L 108.121094 144.6875 L 196.03125 112.359375 L 228.359375 200.269531 Z M 140.449219 232.597656 " clip-rule="nonzero"/></clipPath><clipPath id="f63b06dd65"><path d="M 124.285156 188.644531 C 133.210938 212.917969 160.128906 225.363281 184.402344 216.433594 C 208.679688 207.507812 221.125 180.589844 212.195312 156.316406 C 203.269531 132.039062 176.351562 119.59375 152.074219 128.523438 C 127.800781 137.449219 115.355469 164.367188 124.285156 188.644531 Z M 124.285156 188.644531 " clip-rule="nonzero"/></clipPath><clipPath id="236e147204"><path d="M 5 85 L 241 85 L 241 304 L 5 304 Z M 5 85 " clip-rule="nonzero"/></clipPath><clipPath id="44a3d0def6"><path d="M 76.378906 85.878906 L 240.457031 210.851562 L 169.855469 303.546875 L 5.777344 178.578125 Z M 76.378906 85.878906 " clip-rule="nonzero"/></clipPath><clipPath id="46c1b82ee5"><path d="M 85 98 L 149 98 L 149 174 L 85 174 Z M 85 98 " clip-rule="nonzero"/></clipPath><clipPath id="56b04b94e3"><path d="M 121.496094 71.453125 L 181.816406 118.5 L 94.644531 230.273438 L 34.320312 183.226562 Z M 121.496094 71.453125 " clip-rule="nonzero"/></clipPath><clipPath id="7787efc6f4"><path d="M 121.496094 71.453125 L 181.816406 118.5 L 94.644531 230.273438 L 34.320312 183.226562 Z M 121.496094 71.453125 " clip-rule="nonzero"/></clipPath><clipPath id="ec226cb3c7"><path d="M 109 144 L 138 144 L 138 202 L 109 202 Z M 109 144 " clip-rule="nonzero"/></clipPath><clipPath id="4fb787f2c7"><path d="M 121.496094 71.453125 L 181.816406 118.5 L 94.644531 230.273438 L 34.320312 183.226562 Z M 121.496094 71.453125 " clip-rule="nonzero"/></clipPath><clipPath id="3f57eafcdc"><path d="M 121.496094 71.453125 L 181.816406 118.5 L 94.644531 230.273438 L 34.320312 183.226562 Z M 121.496094 71.453125 " clip-rule="nonzero"/></clipPath><clipPath id="a738195da7"><path d="M 58 121 L 108 121 L 108 163 L 58 163 Z M 58 121 " clip-rule="nonzero"/></clipPath><clipPath id="fd812b8d38"><path d="M 121.496094 71.453125 L 181.816406 118.5 L 94.644531 230.273438 L 34.320312 183.226562 Z M 121.496094 71.453125 " clip-rule="nonzero"/></clipPath><clipPath id="67db71aa13"><path d="M 121.496094 71.453125 L 181.816406 118.5 L 94.644531 230.273438 L 34.320312 183.226562 Z M 121.496094 71.453125 " clip-rule="nonzero"/></clipPath><clipPath id="13dd896788"><path d="M 64 159 L 105 159 L 105 207 L 64 207 Z M 64 159 " clip-rule="nonzero"/></clipPath><clipPath id="48cafa3cb8"><path d="M 121.496094 71.453125 L 181.816406 118.5 L 94.644531 230.273438 L 34.320312 183.226562 Z M 121.496094 71.453125 " clip-rule="nonzero"/></clipPath><clipPath id="b842269277"><path d="M 121.496094 71.453125 L 181.816406 118.5 L 94.644531 230.273438 L 34.320312 183.226562 Z M 121.496094 71.453125 " clip-rule="nonzero"/></clipPath><clipPath id="947d8bda58"><path d="M 95 147 L 111 147 L 111 167 L 95 167 Z M 95 147 " clip-rule="nonzero"/></clipPath><clipPath id="e0044c3f53"><path d="M 121.496094 71.453125 L 181.816406 118.5 L 94.644531 230.273438 L 34.320312 183.226562 Z M 121.496094 71.453125 " clip-rule="nonzero"/></clipPath><clipPath id="4adc22052f"><path d="M 121.496094 71.453125 L 181.816406 118.5 L 94.644531 230.273438 L 34.320312 183.226562 Z M 121.496094 71.453125 " clip-rule="nonzero"/></clipPath><clipPath id="bc0bb2b4b4"><path d="M 123 115 L 138 115 L 138 129 L 123 129 Z M 123 115 " clip-rule="nonzero"/></clipPath><clipPath id="a9ecb2de2a"><path d="M 121.496094 71.453125 L 181.816406 118.5 L 94.644531 230.273438 L 34.320312 183.226562 Z M 121.496094 71.453125 " clip-rule="nonzero"/></clipPath><clipPath id="cf4cf54eec"><path d="M 121.496094 71.453125 L 181.816406 118.5 L 94.644531 230.273438 L 34.320312 183.226562 Z M 121.496094 71.453125 " clip-rule="nonzero"/></clipPath><clipPath id="08b1a830e4"><path d="M 88 198 L 99 198 L 99 209 L 88 209 Z M 88 198 " clip-rule="nonzero"/></clipPath><clipPath id="d6e5ce8b49"><path d="M 121.496094 71.453125 L 181.816406 118.5 L 94.644531 230.273438 L 34.320312 183.226562 Z M 121.496094 71.453125 " clip-rule="nonzero"/></clipPath><clipPath id="dfc828a76d"><path d="M 121.496094 71.453125 L 181.816406 118.5 L 94.644531 230.273438 L 34.320312 183.226562 Z M 121.496094 71.453125 " clip-rule="nonzero"/></clipPath><clipPath id="7f4422db0d"><path d="M 55 173 L 66 173 L 66 184 L 55 184 Z M 55 173 " clip-rule="nonzero"/></clipPath><clipPath id="589c525f2d"><path d="M 121.496094 71.453125 L 181.816406 118.5 L 94.644531 230.273438 L 34.320312 183.226562 Z M 121.496094 71.453125 " clip-rule="nonzero"/></clipPath><clipPath id="8bc92793e7"><path d="M 121.496094 71.453125 L 181.816406 118.5 L 94.644531 230.273438 L 34.320312 183.226562 Z M 121.496094 71.453125 " clip-rule="nonzero"/></clipPath><clipPath id="69cb4d5086"><path d="M 66 166 L 71 166 L 71 170 L 66 170 Z M 66 166 " clip-rule="nonzero"/></clipPath><clipPath id="fbefdd8fa3"><path d="M 121.496094 71.453125 L 181.816406 118.5 L 94.644531 230.273438 L 34.320312 183.226562 Z M 121.496094 71.453125 " clip-rule="nonzero"/></clipPath><clipPath id="be802a0030"><path d="M 121.496094 71.453125 L 181.816406 118.5 L 94.644531 230.273438 L 34.320312 183.226562 Z M 121.496094 71.453125 " clip-rule="nonzero"/></clipPath><clipPath id="76dda38b9a"><path d="M 56 191 L 60 191 L 60 194 L 56 194 Z M 56 191 " clip-rule="nonzero"/></clipPath><clipPath id="65ea842ecd"><path d="M 121.496094 71.453125 L 181.816406 118.5 L 94.644531 230.273438 L 34.320312 183.226562 Z M 121.496094 71.453125 " clip-rule="nonzero"/></clipPath><clipPath id="915f96d8e1"><path d="M 121.496094 71.453125 L 181.816406 118.5 L 94.644531 230.273438 L 34.320312 183.226562 Z M 121.496094 71.453125 " clip-rule="nonzero"/></clipPath><clipPath id="1b5cd2cf98"><path d="M 153 97 L 155 97 L 155 99 L 153 99 Z M 153 97 " clip-rule="nonzero"/></clipPath><clipPath id="663c0cb378"><path d="M 121.496094 71.453125 L 181.816406 118.5 L 94.644531 230.273438 L 34.320312 183.226562 Z M 121.496094 71.453125 " clip-rule="nonzero"/></clipPath><clipPath id="643c294702"><path d="M 121.496094 71.453125 L 181.816406 118.5 L 94.644531 230.273438 L 34.320312 183.226562 Z M 121.496094 71.453125 " clip-rule="nonzero"/></clipPath><clipPath id="fda9f12427"><path d="M 110 205 L 112 205 L 112 207 L 110 207 Z M 110 205 " clip-rule="nonzero"/></clipPath><clipPath id="e431b30217"><path d="M 121.496094 71.453125 L 181.816406 118.5 L 94.644531 230.273438 L 34.320312 183.226562 Z M 121.496094 71.453125 " clip-rule="nonzero"/></clipPath><clipPath id="bd3df131b6"><path d="M 121.496094 71.453125 L 181.816406 118.5 L 94.644531 230.273438 L 34.320312 183.226562 Z M 121.496094 71.453125 " clip-rule="nonzero"/></clipPath><clipPath id="53b0dcb48c"><path d="M 134 91 L 136 91 L 136 94 L 134 94 Z M 134 91 " clip-rule="nonzero"/></clipPath><clipPath id="2ba744cb35"><path d="M 121.496094 71.453125 L 181.816406 118.5 L 94.644531 230.273438 L 34.320312 183.226562 Z M 121.496094 71.453125 " clip-rule="nonzero"/></clipPath><clipPath id="4ee28946d9"><path d="M 121.496094 71.453125 L 181.816406 118.5 L 94.644531 230.273438 L 34.320312 183.226562 Z M 121.496094 71.453125 " clip-rule="nonzero"/></clipPath><clipPath id="7ec554e2aa"><path d="M 51 160 L 54 160 L 54 163 L 51 163 Z M 51 160 " clip-rule="nonzero"/></clipPath><clipPath id="1d2cdf09ea"><path d="M 121.496094 71.453125 L 181.816406 118.5 L 94.644531 230.273438 L 34.320312 183.226562 Z M 121.496094 71.453125 " clip-rule="nonzero"/></clipPath><clipPath id="e8a9f89877"><path d="M 121.496094 71.453125 L 181.816406 118.5 L 94.644531 230.273438 L 34.320312 183.226562 Z M 121.496094 71.453125 " clip-rule="nonzero"/></clipPath><clipPath id="49d3d7c9ad"><path d="M 81 207 L 83 207 L 83 209 L 81 209 Z M 81 207 " clip-rule="nonzero"/></clipPath><clipPath id="f715fad82c"><path d="M 121.496094 71.453125 L 181.816406 118.5 L 94.644531 230.273438 L 34.320312 183.226562 Z M 121.496094 71.453125 " clip-rule="nonzero"/></clipPath><clipPath id="06293a21c9"><path d="M 121.496094 71.453125 L 181.816406 118.5 L 94.644531 230.273438 L 34.320312 183.226562 Z M 121.496094 71.453125 " clip-rule="nonzero"/></clipPath><clipPath id="a83c48787f"><path d="M 154 109 L 157 109 L 157 111 L 154 111 Z M 154 109 " clip-rule="nonzero"/></clipPath><clipPath id="d23dfc4825"><path d="M 121.496094 71.453125 L 181.816406 118.5 L 94.644531 230.273438 L 34.320312 183.226562 Z M 121.496094 71.453125 " clip-rule="nonzero"/></clipPath><clipPath id="792d663e09"><path d="M 121.496094 71.453125 L 181.816406 118.5 L 94.644531 230.273438 L 34.320312 183.226562 Z M 121.496094 71.453125 " clip-rule="nonzero"/></clipPath><clipPath id="0896b35fac"><path d="M 101 100 L 104 100 L 104 104 L 101 104 Z M 101 100 " clip-rule="nonzero"/></clipPath><clipPath id="0b345a2be7"><path d="M 121.496094 71.453125 L 181.816406 118.5 L 94.644531 230.273438 L 34.320312 183.226562 Z M 121.496094 71.453125 " clip-rule="nonzero"/></clipPath><clipPath id="751bb5ee8c"><path d="M 121.496094 71.453125 L 181.816406 118.5 L 94.644531 230.273438 L 34.320312 183.226562 Z M 121.496094 71.453125 " clip-rule="nonzero"/></clipPath><clipPath id="efb8a24b60"><path d="M 104 88 L 123 88 L 123 108 L 104 108 Z M 104 88 " clip-rule="nonzero"/></clipPath><clipPath id="052f2e4f66"><path d="M 121.496094 71.453125 L 181.816406 118.5 L 94.644531 230.273438 L 34.320312 183.226562 Z M 121.496094 71.453125 " clip-rule="nonzero"/></clipPath><clipPath id="e3688a6947"><path d="M 121.496094 71.453125 L 181.816406 118.5 L 94.644531 230.273438 L 34.320312 183.226562 Z M 121.496094 71.453125 " clip-rule="nonzero"/></clipPath><clipPath id="47c75e632f"><path d="M 90 110 L 100 110 L 100 121 L 90 121 Z M 90 110 " clip-rule="nonzero"/></clipPath><clipPath id="37c4000115"><path d="M 121.496094 71.453125 L 181.816406 118.5 L 94.644531 230.273438 L 34.320312 183.226562 Z M 121.496094 71.453125 " clip-rule="nonzero"/></clipPath><clipPath id="f7a8a1847c"><path d="M 121.496094 71.453125 L 181.816406 118.5 L 94.644531 230.273438 L 34.320312 183.226562 Z M 121.496094 71.453125 " clip-rule="nonzero"/></clipPath><clipPath id="7618024f43"><path d="M 155 143 L 159 143 L 159 146 L 155 146 Z M 155 143 " clip-rule="nonzero"/></clipPath><clipPath id="a0a0a2b4ef"><path d="M 121.496094 71.453125 L 181.816406 118.5 L 94.644531 230.273438 L 34.320312 183.226562 Z M 121.496094 71.453125 " clip-rule="nonzero"/></clipPath><clipPath id="f355f455bb"><path d="M 121.496094 71.453125 L 181.816406 118.5 L 94.644531 230.273438 L 34.320312 183.226562 Z M 121.496094 71.453125 " clip-rule="nonzero"/></clipPath><clipPath id="67c268be09"><path d="M 149 123 L 168 123 L 168 142 L 149 142 Z M 149 123 " clip-rule="nonzero"/></clipPath><clipPath id="466c48918d"><path d="M 121.496094 71.453125 L 181.816406 118.5 L 94.644531 230.273438 L 34.320312 183.226562 Z M 121.496094 71.453125 " clip-rule="nonzero"/></clipPath><clipPath id="ca80cb5589"><path d="M 121.496094 71.453125 L 181.816406 118.5 L 94.644531 230.273438 L 34.320312 183.226562 Z M 121.496094 71.453125 " clip-rule="nonzero"/></clipPath><clipPath id="534f4df7dd"><path d="M 141 149 L 151 149 L 151 160 L 141 160 Z M 141 149 " clip-rule="nonzero"/></clipPath><clipPath id="cc9f17e5e2"><path d="M 121.496094 71.453125 L 181.816406 118.5 L 94.644531 230.273438 L 34.320312 183.226562 Z M 121.496094 71.453125 " clip-rule="nonzero"/></clipPath><clipPath id="9f1fe683a6"><path d="M 121.496094 71.453125 L 181.816406 118.5 L 94.644531 230.273438 L 34.320312 183.226562 Z M 121.496094 71.453125 " clip-rule="nonzero"/></clipPath></defs><g clip-path="url(#0d7b112ffa)"><g clip-path="url(#858a60a5a8)"><g clip-path="url(#edff4e3891)"><g clip-path="url(#f63b06dd65)"><path stroke-linecap="butt" transform="matrix(-0.258854, -0.703913, 0.703913, -0.258854, 140.447911, 232.599184)" fill="none" stroke-linejoin="miter" d="M 62.442819 0.00120677 C 27.959468 0.000653962 -0.00189301 27.9587 0.00244248 62.443848 C 0.0000920681 96.932087 27.958138 124.893449 62.443286 124.889113 C 96.931526 124.891464 124.892887 96.933418 124.890349 62.443381 C 124.890902 27.96003 96.932856 -0.00133111 62.442819 0.00120677 Z M 62.442819 0.00120677 " stroke="#000000" stroke-width="8" stroke-opacity="1" stroke-miterlimit="4"/></g></g></g></g><g clip-path="url(#236e147204)"><g clip-path="url(#44a3d0def6)"><path fill="#ffffff" d="M 76.378906 85.878906 L 240.410156 210.8125 L 169.804688 303.511719 L 5.777344 178.578125 Z M 76.378906 85.878906 " fill-opacity="1" fill-rule="nonzero"/></g></g><g clip-path="url(#46c1b82ee5)"><g clip-path="url(#56b04b94e3)"><g clip-path="url(#7787efc6f4)"><path fill="#004aad" d="M 148.914062 100.347656 C 148.917969 99.851562 148.902344 99.359375 148.882812 98.863281 C 148.878906 98.671875 148.785156 98.613281 148.605469 98.660156 C 119.609375 104.648438 98.261719 129.449219 85.980469 155.15625 C 85.90625 155.394531 85.6875 155.730469 85.976562 155.90625 C 88.871094 158.03125 91.65625 160.308594 94.496094 162.503906 C 94.777344 162.691406 94.988281 161.898438 95.292969 161.597656 C 100.863281 153.972656 108.390625 148.121094 115.140625 141.605469 C 115.734375 141.136719 115.433594 141.75 115.257812 142.035156 C 112.25 147.335938 109.289062 152.664062 106.054688 157.828125 C 104.296875 160.804688 102.242188 163.589844 99.910156 166.140625 C 99.503906 166.496094 99.75 166.554688 100.058594 166.824219 C 102.917969 169.027344 105.742188 171.269531 108.582031 173.496094 C 130.453125 156.652344 149.476562 129.296875 148.914062 100.347656 Z M 141.828125 118.710938 C 141.359375 119.820312 141.03125 120.984375 140.5625 122.097656 C 140.554688 122.09375 140.550781 122.09375 140.542969 122.089844 C 140.523438 122.164062 140.46875 122.210938 140.410156 122.253906 C 140.535156 120.980469 140.90625 119.703125 141.039062 118.417969 C 141.078125 118.261719 141.160156 118.222656 141.3125 118.292969 C 141.480469 118.40625 141.921875 118.433594 141.828125 118.710938 Z M 141.914062 116.292969 C 142.6875 116.453125 142.527344 116.785156 142.238281 117.375 C 142.058594 117.617188 141.832031 117.453125 141.628906 117.367188 C 141.113281 117.210938 141.523438 116.90625 141.53125 116.535156 C 141.570312 116.1875 141.566406 116.1875 141.914062 116.292969 Z M 128.441406 114.117188 C 135.714844 112.371094 141.671875 120.566406 137.261719 126.792969 C 127.46875 138.242188 114.152344 118.925781 128.441406 114.117188 Z M 112.4375 162.808594 C 112.273438 162.941406 112.234375 162.941406 112.070312 162.839844 C 111.074219 162.074219 110.074219 161.316406 109.09375 160.539062 C 118.941406 152.3125 128.746094 142.855469 136.167969 132.054688 C 133.195312 138.203125 129.355469 143.660156 125.1875 149.179688 C 121.484375 153.988281 116.960938 158.667969 112.4375 162.808594 Z M 112.4375 162.808594 " fill-opacity="1" fill-rule="nonzero"/></g></g></g><g clip-path="url(#ec226cb3c7)"><g clip-path="url(#4fb787f2c7)"><g clip-path="url(#3f57eafcdc)"><path fill="#004aad" d="M 137.460938 163.6875 C 137.109375 157.394531 137.03125 151.046875 136.546875 144.777344 C 135.257812 146.242188 134.308594 148.0625 133.066406 149.601562 C 132.867188 149.875 132.757812 150.160156 132.808594 150.511719 C 133.199219 155.480469 133.476562 160.460938 133.796875 165.433594 C 133.996094 170.089844 134.796875 172.480469 131.597656 176.503906 C 135.683594 169.226562 131.425781 161.375 130.882812 153.503906 C 130.828125 153.410156 130.839844 152.679688 130.585938 152.933594 C 126.652344 158.054688 122.421875 162.941406 117.800781 167.457031 C 116.121094 169.054688 114.46875 170.6875 112.660156 172.144531 C 112.421875 172.335938 112.339844 172.53125 112.390625 172.824219 C 113.753906 182.570312 111.308594 192.652344 109.261719 201.902344 C 117.488281 196.90625 125.027344 190.40625 131.214844 183.058594 C 136.539062 177.003906 138.492188 171.65625 137.460938 163.6875 Z M 137.460938 163.6875 " fill-opacity="1" fill-rule="nonzero"/></g></g></g><g clip-path="url(#a738195da7)"><g clip-path="url(#fd812b8d38)"><g clip-path="url(#67db71aa13)"><path fill="#004aad" d="M 97.597656 133.339844 C 97.585938 133.328125 97.574219 133.320312 97.5625 133.3125 C 98.542969 132.054688 99.496094 130.773438 100.496094 129.53125 C 100.792969 129.171875 97.804688 129.675781 97.488281 129.632812 C 94.078125 129.910156 90.667969 130.179688 87.257812 130.457031 C 83.054688 130.578125 80.847656 131.289062 77.589844 134.039062 C 79.628906 130.925781 83.34375 130.125 86.777344 129.574219 C 91.589844 128.597656 96.429688 127.796875 101.257812 126.917969 C 101.980469 126.722656 102.839844 126.839844 103.316406 126.152344 C 104.46875 124.675781 105.785156 123.332031 107.019531 121.929688 C 107.058594 121.867188 107.015625 121.804688 106.953125 121.804688 C 98.984375 123.183594 91.085938 125.011719 83.171875 126.695312 C 69.785156 131.449219 62.796875 149.65625 58.324219 162.136719 C 66.285156 158.1875 75.15625 153.324219 84.488281 152.117188 C 85.003906 151.957031 85.945312 152.199219 86.222656 151.699219 C 89.371094 145.210938 93.285156 139.113281 97.597656 133.339844 Z M 97.597656 133.339844 " fill-opacity="1" fill-rule="nonzero"/></g></g></g><g clip-path="url(#13dd896788)"><g clip-path="url(#48cafa3cb8)"><g clip-path="url(#b842269277)"><path fill="#004aad" d="M 103.953125 171.402344 C 103.546875 171.183594 100.828125 168.722656 100.703125 169.191406 C 95.472656 176.277344 88.984375 182.902344 80.730469 186.320312 C 80.535156 186.371094 80.160156 186.488281 80.191406 186.160156 C 81.171875 177.234375 86.339844 169.445312 91.839844 162.605469 C 92.152344 162.246094 92.070312 162.140625 91.714844 161.878906 C 90.984375 161.304688 90.253906 160.734375 89.523438 160.160156 C 89.332031 160.007812 89.105469 159.800781 88.867188 159.988281 C 74.710938 171.109375 67.453125 189.207031 64.875 206.601562 C 81.664062 200.613281 97.421875 188.757812 104.207031 171.878906 C 104.320312 171.648438 104.105469 171.527344 103.953125 171.402344 Z M 75.3125 180.691406 C 75.515625 180.851562 74.960938 181.761719 74.902344 182.035156 C 73.972656 182.644531 74.996094 180.648438 75.3125 180.691406 Z M 73.347656 183.972656 C 73.523438 183.75 73.617188 183.605469 73.820312 183.617188 C 74.070312 183.632812 74.238281 183.816406 74.164062 184.046875 C 74.074219 184.324219 73.941406 184.585938 73.808594 184.847656 C 73.691406 184.996094 73.453125 184.890625 73.3125 184.816406 C 72.890625 184.667969 73.246094 184.164062 73.347656 183.972656 Z M 72.136719 187.222656 C 71.488281 186.542969 72.335938 185.652344 73.109375 186.230469 C 73.664062 186.871094 72.863281 187.777344 72.136719 187.222656 Z M 72.136719 187.222656 " fill-opacity="1" fill-rule="nonzero"/></g></g></g><g clip-path="url(#947d8bda58)"><g clip-path="url(#e0044c3f53)"><g clip-path="url(#4adc22052f)"><path fill="#004aad" d="M 100.199219 163.925781 C 104.476562 158.90625 107.609375 152.902344 110.878906 147.21875 C 106.675781 151.285156 102.203125 155.125 98.40625 159.613281 C 97.082031 161.425781 95.34375 163.300781 95.019531 165.621094 C 95.582031 168.929688 99.152344 165.035156 100.199219 163.925781 Z M 99.753906 162.460938 C 100.125 161.855469 100.699219 161.324219 101.136719 160.746094 C 101.128906 160.738281 101.117188 160.730469 101.109375 160.722656 C 102.648438 158.691406 104.003906 156.503906 105.507812 154.464844 C 104.699219 156.167969 101.28125 161.824219 99.753906 162.460938 Z M 99.753906 162.460938 " fill-opacity="1" fill-rule="nonzero"/></g></g></g><g clip-path="url(#bc0bb2b4b4)"><g clip-path="url(#a9ecb2de2a)"><g clip-path="url(#cf4cf54eec)"><path fill="#004aad" d="M 137.226562 120.75 C 133.644531 108.789062 116.96875 118.765625 126.117188 127.355469 C 130.929688 131.4375 138.605469 126.996094 137.226562 120.75 Z M 125.339844 124.574219 C 124.75 124.648438 124.6875 124.597656 124.566406 124.007812 C 123.96875 122.074219 124.292969 119.898438 125.613281 118.339844 C 127.242188 116.125 130.394531 115.457031 132.863281 116.546875 C 135.332031 117.664062 136.820312 120.179688 136.640625 122.867188 C 136.644531 123.101562 136.546875 123.1875 136.292969 123.214844 C 132.636719 123.605469 128.992188 124.109375 125.339844 124.574219 Z M 125.339844 124.574219 " fill-opacity="1" fill-rule="nonzero"/></g></g></g><g clip-path="url(#08b1a830e4)"><g clip-path="url(#d6e5ce8b49)"><g clip-path="url(#dfc828a76d)"><path fill="#38b6ff" d="M 97.1875 198.554688 C 94.066406 201.203125 91.972656 201.242188 88.339844 199.570312 C 90.851562 202.09375 91.144531 205.296875 89.496094 208.402344 C 92.195312 205.636719 95.035156 205.625 98.34375 207.253906 C 95.867188 204.691406 95.371094 201.675781 97.1875 198.554688 Z M 97.1875 198.554688 " fill-opacity="1" fill-rule="nonzero"/></g></g></g><g clip-path="url(#7f4422db0d)"><g clip-path="url(#589c525f2d)"><g clip-path="url(#8bc92793e7)"><path fill="#38b6ff" d="M 65.394531 181.476562 C 63.09375 178.925781 63.046875 176.210938 64.605469 173.25 C 61.886719 175.90625 58.949219 175.902344 55.699219 174.21875 C 58.238281 176.859375 58.808594 179.875 56.820312 183.050781 C 59.589844 180.625 62.382812 180.023438 65.664062 182.011719 C 65.929688 182.015625 65.441406 181.582031 65.394531 181.476562 Z M 65.394531 181.476562 " fill-opacity="1" fill-rule="nonzero"/></g></g></g><g clip-path="url(#69cb4d5086)"><g clip-path="url(#fbefdd8fa3)"><g clip-path="url(#be802a0030)"><path fill="#38b6ff" d="M 67.613281 169.34375 C 69.496094 170.773438 71.414062 167.96875 69.757812 166.667969 C 68.015625 165.261719 65.851562 167.957031 67.613281 169.34375 Z M 67.613281 169.34375 " fill-opacity="1" fill-rule="nonzero"/></g></g></g><g clip-path="url(#76dda38b9a)"><g clip-path="url(#65ea842ecd)"><g clip-path="url(#915f96d8e1)"><path fill="#38b6ff" d="M 56.726562 191.6875 C 55.664062 193.011719 57.789062 194.660156 58.796875 193.25 C 59.816406 191.867188 57.890625 190.332031 56.726562 191.6875 Z M 56.726562 191.6875 " fill-opacity="1" fill-rule="nonzero"/></g></g></g><g clip-path="url(#1b5cd2cf98)"><g clip-path="url(#663c0cb378)"><g clip-path="url(#643c294702)"><path fill="#38b6ff" d="M 153.1875 97.34375 C 152.535156 98.203125 153.898438 99.253906 154.539062 98.34375 C 155.28125 97.34375 153.816406 96.515625 153.1875 97.34375 Z M 153.1875 97.34375 " fill-opacity="1" fill-rule="nonzero"/></g></g></g><g clip-path="url(#fda9f12427)"><g clip-path="url(#e431b30217)"><g clip-path="url(#bd3df131b6)"><path fill="#38b6ff" d="M 110.265625 205.566406 C 109.605469 206.402344 110.808594 207.375 111.539062 206.597656 C 112.226562 205.757812 110.945312 204.734375 110.265625 205.566406 Z M 110.265625 205.566406 " fill-opacity="1" fill-rule="nonzero"/></g></g></g><g clip-path="url(#53b0dcb48c)"><g clip-path="url(#2ba744cb35)"><g clip-path="url(#4ee28946d9)"><path fill="#38b6ff" d="M 134.515625 93.214844 C 135.382812 93.882812 136.296875 92.6875 135.484375 92.03125 C 134.683594 91.472656 133.726562 92.554688 134.515625 93.214844 Z M 134.515625 93.214844 " fill-opacity="1" fill-rule="nonzero"/></g></g></g><g clip-path="url(#7ec554e2aa)"><g clip-path="url(#1d2cdf09ea)"><g clip-path="url(#e8a9f89877)"><path fill="#38b6ff" d="M 53.195312 160.800781 C 52.519531 160.261719 51.488281 161.351562 52.238281 161.925781 C 53.039062 162.527344 53.875 161.441406 53.195312 160.800781 Z M 53.195312 160.800781 " fill-opacity="1" fill-rule="nonzero"/></g></g></g><g clip-path="url(#49d3d7c9ad)"><g clip-path="url(#f715fad82c)"><g clip-path="url(#06293a21c9)"><path fill="#38b6ff" d="M 82.253906 207.269531 C 81.4375 206.800781 80.761719 207.769531 81.386719 208.394531 C 82.152344 208.882812 82.921875 207.851562 82.253906 207.269531 Z M 82.253906 207.269531 " fill-opacity="1" fill-rule="nonzero"/></g></g></g><g clip-path="url(#a83c48787f)"><g clip-path="url(#d23dfc4825)"><g clip-path="url(#792d663e09)"><path fill="#38b6ff" d="M 155.894531 109.332031 C 155.292969 108.804688 154.539062 109.820312 155.15625 110.261719 C 155.816406 110.789062 156.601562 109.839844 155.894531 109.332031 Z M 155.894531 109.332031 " fill-opacity="1" fill-rule="nonzero"/></g></g></g><g clip-path="url(#0896b35fac)"><g clip-path="url(#0b345a2be7)"><g clip-path="url(#751bb5ee8c)"><path fill="#38b6ff" d="M 101.519531 102.699219 C 102.964844 103.902344 104.566406 101.699219 103.152344 100.65625 C 101.824219 99.523438 100.136719 101.667969 101.519531 102.699219 Z M 101.519531 102.699219 " fill-opacity="1" fill-rule="nonzero"/></g></g></g><g clip-path="url(#efb8a24b60)"><g clip-path="url(#052f2e4f66)"><g clip-path="url(#e3688a6947)"><path fill="#38b6ff" d="M 104.617188 98.230469 L 111.316406 100.175781 L 111.539062 107.152344 L 115.457031 101.378906 L 122.15625 103.324219 L 117.882812 97.8125 L 121.804688 92.042969 L 115.238281 94.40625 L 110.960938 88.894531 L 111.183594 95.867188 Z M 104.617188 98.230469 " fill-opacity="1" fill-rule="nonzero"/></g></g></g><g clip-path="url(#47c75e632f)"><g clip-path="url(#37c4000115)"><g clip-path="url(#f7a8a1847c)"><path fill="#38b6ff" d="M 99.71875 118.089844 L 97.441406 115.214844 L 99.5 112.222656 L 96.035156 113.433594 L 93.761719 110.554688 L 93.898438 114.183594 L 90.433594 115.394531 L 93.980469 116.425781 L 94.113281 120.050781 L 96.171875 117.0625 Z M 99.71875 118.089844 " fill-opacity="1" fill-rule="nonzero"/></g></g></g><g clip-path="url(#7618024f43)"><g clip-path="url(#a0a0a2b4ef)"><g clip-path="url(#f355f455bb)"><path fill="#38b6ff" d="M 157.894531 143.347656 C 156.539062 142.230469 154.792969 144.324219 156.308594 145.433594 C 157.648438 146.523438 159.320312 144.363281 157.894531 143.347656 Z M 157.894531 143.347656 " fill-opacity="1" fill-rule="nonzero"/></g></g></g><g clip-path="url(#67c268be09)"><g clip-path="url(#466c48918d)"><g clip-path="url(#ca80cb5589)"><path fill="#38b6ff" d="M 149.554688 136.800781 L 156.371094 135.316406 L 159.890625 141.339844 L 160.582031 134.394531 L 167.402344 132.910156 L 161.011719 130.105469 L 161.707031 123.164062 L 157.066406 128.371094 L 150.675781 125.566406 L 154.195312 131.589844 Z M 149.554688 136.800781 " fill-opacity="1" fill-rule="nonzero"/></g></g></g><g clip-path="url(#534f4df7dd)"><g clip-path="url(#cc9f17e5e2)"><g clip-path="url(#9f1fe683a6)"><path fill="#38b6ff" d="M 147.03125 155.621094 L 150.582031 154.867188 L 147.234375 153.367188 L 147.570312 149.710938 L 145.167969 152.4375 L 141.820312 150.929688 L 143.683594 154.117188 L 141.285156 156.839844 L 144.835938 156.089844 L 146.699219 159.277344 Z M 147.03125 155.621094 " fill-opacity="1" fill-rule="nonzero"/></g></g></g><g fill="#38b6ff" fill-opacity="0.4"><g transform="translate(151.017222, 189.313661)"><g><path d="M 26.453125 -9.0625 C 26.453125 -5.945312 25.539062 -3.65625 23.71875 -2.1875 C 21.894531 -0.726562 19.03125 0 15.125 0 L 2.359375 0 L 2.359375 -30.875 L 15.125 -30.875 C 18.664062 -30.875 21.179688 -30.257812 22.671875 -29.03125 C 24.171875 -27.800781 24.921875 -25.742188 24.921875 -22.859375 C 24.921875 -21.015625 24.671875 -19.609375 24.171875 -18.640625 C 23.679688 -17.671875 22.703125 -16.925781 21.234375 -16.40625 C 23.003906 -16.039062 24.316406 -15.25 25.171875 -14.03125 C 26.023438 -12.820312 26.453125 -11.164062 26.453125 -9.0625 Z M 17.875 -21.71875 C 17.875 -22.800781 17.664062 -23.554688 17.25 -23.984375 C 16.84375 -24.410156 16.132812 -24.625 15.125 -24.625 L 10 -24.625 L 10 -18.375 L 15.125 -18.375 C 16.132812 -18.375 16.84375 -18.625 17.25 -19.125 C 17.664062 -19.632812 17.875 -20.5 17.875 -21.71875 Z M 19.0625 -9.546875 C 19.0625 -10.734375 18.765625 -11.5625 18.171875 -12.03125 C 17.578125 -12.507812 16.5625 -12.75 15.125 -12.75 L 10 -12.75 L 10 -6.5 L 15.125 -6.5 C 16.5625 -6.5 17.578125 -6.726562 18.171875 -7.1875 C 18.765625 -7.644531 19.0625 -8.429688 19.0625 -9.546875 Z M 19.0625 -9.546875 "/></g></g></g><g fill="#38b6ff" fill-opacity="0.4"><g transform="translate(178.44241, 189.313661)"><g><path d="M 9.703125 -26.984375 L 1.921875 -26.984375 L 1.921875 -32.75 L 9.703125 -32.75 Z M 9.5 0 L 2.125 0 L 2.125 -24.328125 L 9.5 -24.328125 Z M 9.5 0 "/></g></g></g><g fill="#38b6ff" fill-opacity="0.4"><g transform="translate(190.062419, 189.313661)"><g><path d="M 20 -6.40625 L 20 0 L 1.078125 0 L 1.078125 -6.40625 L 10.890625 -18.171875 L 1.96875 -18.171875 L 1.96875 -24.328125 L 19.15625 -24.328125 L 19.15625 -18.171875 L 9.5 -6.40625 Z M 20 -6.40625 "/></g></g></g><g fill="#38b6ff" fill-opacity="0.4"><g transform="translate(210.988275, 189.313661)"><g><path d="M 26.453125 -9.0625 C 26.453125 -5.945312 25.539062 -3.65625 23.71875 -2.1875 C 21.894531 -0.726562 19.03125 0 15.125 0 L 2.359375 0 L 2.359375 -30.875 L 15.125 -30.875 C 18.664062 -30.875 21.179688 -30.257812 22.671875 -29.03125 C 24.171875 -27.800781 24.921875 -25.742188 24.921875 -22.859375 C 24.921875 -21.015625 24.671875 -19.609375 24.171875 -18.640625 C 23.679688 -17.671875 22.703125 -16.925781 21.234375 -16.40625 C 23.003906 -16.039062 24.316406 -15.25 25.171875 -14.03125 C 26.023438 -12.820312 26.453125 -11.164062 26.453125 -9.0625 Z M 17.875 -21.71875 C 17.875 -22.800781 17.664062 -23.554688 17.25 -23.984375 C 16.84375 -24.410156 16.132812 -24.625 15.125 -24.625 L 10 -24.625 L 10 -18.375 L 15.125 -18.375 C 16.132812 -18.375 16.84375 -18.625 17.25 -19.125 C 17.664062 -19.632812 17.875 -20.5 17.875 -21.71875 Z M 19.0625 -9.546875 C 19.0625 -10.734375 18.765625 -11.5625 18.171875 -12.03125 C 17.578125 -12.507812 16.5625 -12.75 15.125 -12.75 L 10 -12.75 L 10 -6.5 L 15.125 -6.5 C 16.5625 -6.5 17.578125 -6.726562 18.171875 -7.1875 C 18.765625 -7.644531 19.0625 -8.429688 19.0625 -9.546875 Z M 19.0625 -9.546875 "/></g></g></g><g fill="#38b6ff" fill-opacity="0.4"><g transform="translate(238.413464, 189.313661)"><g><path d="M 10.25 0.5 C 7.488281 0.5 5.425781 -0.179688 4.0625 -1.546875 C 2.695312 -2.910156 2.015625 -4.972656 2.015625 -7.734375 L 2.015625 -24.328125 L 9.40625 -24.328125 L 9.40625 -8.71875 C 9.40625 -7.894531 9.648438 -7.300781 10.140625 -6.9375 C 10.640625 -6.582031 11.429688 -6.40625 12.515625 -6.40625 C 13.128906 -6.40625 13.789062 -6.453125 14.5 -6.546875 C 15.207031 -6.648438 15.921875 -6.800781 16.640625 -7 L 16.640625 -24.328125 L 24.03125 -24.328125 L 24.03125 0 L 17.140625 0 L 16.9375 -1.328125 L 16.84375 -1.328125 C 15.695312 -0.773438 14.539062 -0.332031 13.375 0 C 12.207031 0.332031 11.164062 0.5 10.25 0.5 Z M 10.25 0.5 "/></g></g></g><g fill="#38b6ff" fill-opacity="0.4"><g transform="translate(264.558474, 189.313661)"><g><path d="M 17.140625 -32.75 L 24.53125 -32.75 L 24.53125 0 L 17.96875 0 L 17.578125 -2.265625 L 17.4375 -2.265625 C 16.550781 -1.347656 15.5 -0.65625 14.28125 -0.1875 C 13.0625 0.269531 11.679688 0.5 10.140625 0.5 C 6.921875 0.5 4.628906 -0.46875 3.265625 -2.40625 C 1.910156 -4.34375 1.234375 -7.597656 1.234375 -12.171875 C 1.234375 -16.597656 2.09375 -19.8125 3.8125 -21.8125 C 5.539062 -23.820312 8.34375 -24.828125 12.21875 -24.828125 C 13.164062 -24.828125 14.054688 -24.769531 14.890625 -24.65625 C 15.734375 -24.539062 16.484375 -24.382812 17.140625 -24.1875 Z M 13.25 -18.171875 C 11.28125 -18.171875 10.015625 -17.800781 9.453125 -17.0625 C 8.898438 -16.320312 8.625 -14.691406 8.625 -12.171875 C 8.625 -9.765625 8.867188 -8.191406 9.359375 -7.453125 C 9.847656 -6.722656 11 -6.359375 12.8125 -6.359375 C 13.65625 -6.359375 14.445312 -6.421875 15.1875 -6.546875 C 15.925781 -6.679688 16.578125 -6.878906 17.140625 -7.140625 L 17.140625 -17.53125 C 16.648438 -17.757812 16.082031 -17.921875 15.4375 -18.015625 C 14.800781 -18.117188 14.070312 -18.171875 13.25 -18.171875 Z M 13.25 -18.171875 "/></g></g></g><g fill="#38b6ff" fill-opacity="0.4"><g transform="translate(291.195863, 189.313661)"><g><path d="M 17.140625 -32.75 L 24.53125 -32.75 L 24.53125 0 L 17.96875 0 L 17.578125 -2.265625 L 17.4375 -2.265625 C 16.550781 -1.347656 15.5 -0.65625 14.28125 -0.1875 C 13.0625 0.269531 11.679688 0.5 10.140625 0.5 C 6.921875 0.5 4.628906 -0.46875 3.265625 -2.40625 C 1.910156 -4.34375 1.234375 -7.597656 1.234375 -12.171875 C 1.234375 -16.597656 2.09375 -19.8125 3.8125 -21.8125 C 5.539062 -23.820312 8.34375 -24.828125 12.21875 -24.828125 C 13.164062 -24.828125 14.054688 -24.769531 14.890625 -24.65625 C 15.734375 -24.539062 16.484375 -24.382812 17.140625 -24.1875 Z M 13.25 -18.171875 C 11.28125 -18.171875 10.015625 -17.800781 9.453125 -17.0625 C 8.898438 -16.320312 8.625 -14.691406 8.625 -12.171875 C 8.625 -9.765625 8.867188 -8.191406 9.359375 -7.453125 C 9.847656 -6.722656 11 -6.359375 12.8125 -6.359375 C 13.65625 -6.359375 14.445312 -6.421875 15.1875 -6.546875 C 15.925781 -6.679688 16.578125 -6.878906 17.140625 -7.140625 L 17.140625 -17.53125 C 16.648438 -17.757812 16.082031 -17.921875 15.4375 -18.015625 C 14.800781 -18.117188 14.070312 -18.171875 13.25 -18.171875 Z M 13.25 -18.171875 "/></g></g></g><g fill="#38b6ff" fill-opacity="0.4"><g transform="translate(317.833251, 189.313661)"><g><path d="M 5.421875 1.671875 C 6.566406 1.671875 7.410156 1.515625 7.953125 1.203125 C 8.492188 0.890625 8.863281 0.320312 9.0625 -0.5 L -0.09375 -24.328125 L 8.125 -24.328125 L 12.8125 -7.6875 L 17.234375 -24.328125 L 25.171875 -24.328125 L 16.5 0.5 C 15.582031 3.15625 14.375 5.066406 12.875 6.234375 C 11.382812 7.398438 9.40625 7.984375 6.9375 7.984375 C 6.25 7.984375 5.535156 7.945312 4.796875 7.875 C 4.054688 7.8125 3.394531 7.710938 2.8125 7.578125 L 2.8125 1.578125 C 3.070312 1.609375 3.363281 1.628906 3.6875 1.640625 C 4.019531 1.660156 4.597656 1.671875 5.421875 1.671875 Z M 5.421875 1.671875 "/></g></g></g><g fill="#38b6ff" fill-opacity="1"><g transform="translate(151.017222, 189.313661)"><g><path d="M 26.453125 -9.0625 C 26.453125 -5.945312 25.539062 -3.65625 23.71875 -2.1875 C 21.894531 -0.726562 19.03125 0 15.125 0 L 2.359375 0 L 2.359375 -30.875 L 15.125 -30.875 C 18.664062 -30.875 21.179688 -30.257812 22.671875 -29.03125 C 24.171875 -27.800781 24.921875 -25.742188 24.921875 -22.859375 C 24.921875 -21.015625 24.671875 -19.609375 24.171875 -18.640625 C 23.679688 -17.671875 22.703125 -16.925781 21.234375 -16.40625 C 23.003906 -16.039062 24.316406 -15.25 25.171875 -14.03125 C 26.023438 -12.820312 26.453125 -11.164062 26.453125 -9.0625 Z M 17.875 -21.71875 C 17.875 -22.800781 17.664062 -23.554688 17.25 -23.984375 C 16.84375 -24.410156 16.132812 -24.625 15.125 -24.625 L 10 -24.625 L 10 -18.375 L 15.125 -18.375 C 16.132812 -18.375 16.84375 -18.625 17.25 -19.125 C 17.664062 -19.632812 17.875 -20.5 17.875 -21.71875 Z M 19.0625 -9.546875 C 19.0625 -10.734375 18.765625 -11.5625 18.171875 -12.03125 C 17.578125 -12.507812 16.5625 -12.75 15.125 -12.75 L 10 -12.75 L 10 -6.5 L 15.125 -6.5 C 16.5625 -6.5 17.578125 -6.726562 18.171875 -7.1875 C 18.765625 -7.644531 19.0625 -8.429688 19.0625 -9.546875 Z M 19.0625 -9.546875 "/></g></g></g><g fill="#38b6ff" fill-opacity="1"><g transform="translate(178.44241, 189.313661)"><g><path d="M 9.703125 -26.984375 L 1.921875 -26.984375 L 1.921875 -32.75 L 9.703125 -32.75 Z M 9.5 0 L 2.125 0 L 2.125 -24.328125 L 9.5 -24.328125 Z M 9.5 0 "/></g></g></g><g fill="#38b6ff" fill-opacity="1"><g transform="translate(190.062419, 189.313661)"><g><path d="M 20 -6.40625 L 20 0 L 1.078125 0 L 1.078125 -6.40625 L 10.890625 -18.171875 L 1.96875 -18.171875 L 1.96875 -24.328125 L 19.15625 -24.328125 L 19.15625 -18.171875 L 9.5 -6.40625 Z M 20 -6.40625 "/></g></g></g><g fill="#38b6ff" fill-opacity="1"><g transform="translate(210.988275, 189.313661)"><g><path d="M 26.453125 -9.0625 C 26.453125 -5.945312 25.539062 -3.65625 23.71875 -2.1875 C 21.894531 -0.726562 19.03125 0 15.125 0 L 2.359375 0 L 2.359375 -30.875 L 15.125 -30.875 C 18.664062 -30.875 21.179688 -30.257812 22.671875 -29.03125 C 24.171875 -27.800781 24.921875 -25.742188 24.921875 -22.859375 C 24.921875 -21.015625 24.671875 -19.609375 24.171875 -18.640625 C 23.679688 -17.671875 22.703125 -16.925781 21.234375 -16.40625 C 23.003906 -16.039062 24.316406 -15.25 25.171875 -14.03125 C 26.023438 -12.820312 26.453125 -11.164062 26.453125 -9.0625 Z M 17.875 -21.71875 C 17.875 -22.800781 17.664062 -23.554688 17.25 -23.984375 C 16.84375 -24.410156 16.132812 -24.625 15.125 -24.625 L 10 -24.625 L 10 -18.375 L 15.125 -18.375 C 16.132812 -18.375 16.84375 -18.625 17.25 -19.125 C 17.664062 -19.632812 17.875 -20.5 17.875 -21.71875 Z M 19.0625 -9.546875 C 19.0625 -10.734375 18.765625 -11.5625 18.171875 -12.03125 C 17.578125 -12.507812 16.5625 -12.75 15.125 -12.75 L 10 -12.75 L 10 -6.5 L 15.125 -6.5 C 16.5625 -6.5 17.578125 -6.726562 18.171875 -7.1875 C 18.765625 -7.644531 19.0625 -8.429688 19.0625 -9.546875 Z M 19.0625 -9.546875 "/></g></g></g><g fill="#38b6ff" fill-opacity="1"><g transform="translate(238.413464, 189.313661)"><g><path d="M 10.25 0.5 C 7.488281 0.5 5.425781 -0.179688 4.0625 -1.546875 C 2.695312 -2.910156 2.015625 -4.972656 2.015625 -7.734375 L 2.015625 -24.328125 L 9.40625 -24.328125 L 9.40625 -8.71875 C 9.40625 -7.894531 9.648438 -7.300781 10.140625 -6.9375 C 10.640625 -6.582031 11.429688 -6.40625 12.515625 -6.40625 C 13.128906 -6.40625 13.789062 -6.453125 14.5 -6.546875 C 15.207031 -6.648438 15.921875 -6.800781 16.640625 -7 L 16.640625 -24.328125 L 24.03125 -24.328125 L 24.03125 0 L 17.140625 0 L 16.9375 -1.328125 L 16.84375 -1.328125 C 15.695312 -0.773438 14.539062 -0.332031 13.375 0 C 12.207031 0.332031 11.164062 0.5 10.25 0.5 Z M 10.25 0.5 "/></g></g></g><g fill="#38b6ff" fill-opacity="1"><g transform="translate(264.558474, 189.313661)"><g><path d="M 17.140625 -32.75 L 24.53125 -32.75 L 24.53125 0 L 17.96875 0 L 17.578125 -2.265625 L 17.4375 -2.265625 C 16.550781 -1.347656 15.5 -0.65625 14.28125 -0.1875 C 13.0625 0.269531 11.679688 0.5 10.140625 0.5 C 6.921875 0.5 4.628906 -0.46875 3.265625 -2.40625 C 1.910156 -4.34375 1.234375 -7.597656 1.234375 -12.171875 C 1.234375 -16.597656 2.09375 -19.8125 3.8125 -21.8125 C 5.539062 -23.820312 8.34375 -24.828125 12.21875 -24.828125 C 13.164062 -24.828125 14.054688 -24.769531 14.890625 -24.65625 C 15.734375 -24.539062 16.484375 -24.382812 17.140625 -24.1875 Z M 13.25 -18.171875 C 11.28125 -18.171875 10.015625 -17.800781 9.453125 -17.0625 C 8.898438 -16.320312 8.625 -14.691406 8.625 -12.171875 C 8.625 -9.765625 8.867188 -8.191406 9.359375 -7.453125 C 9.847656 -6.722656 11 -6.359375 12.8125 -6.359375 C 13.65625 -6.359375 14.445312 -6.421875 15.1875 -6.546875 C 15.925781 -6.679688 16.578125 -6.878906 17.140625 -7.140625 L 17.140625 -17.53125 C 16.648438 -17.757812 16.082031 -17.921875 15.4375 -18.015625 C 14.800781 -18.117188 14.070312 -18.171875 13.25 -18.171875 Z M 13.25 -18.171875 "/></g></g></g><g fill="#38b6ff" fill-opacity="1"><g transform="translate(291.195863, 189.313661)"><g><path d="M 17.140625 -32.75 L 24.53125 -32.75 L 24.53125 0 L 17.96875 0 L 17.578125 -2.265625 L 17.4375 -2.265625 C 16.550781 -1.347656 15.5 -0.65625 14.28125 -0.1875 C 13.0625 0.269531 11.679688 0.5 10.140625 0.5 C 6.921875 0.5 4.628906 -0.46875 3.265625 -2.40625 C 1.910156 -4.34375 1.234375 -7.597656 1.234375 -12.171875 C 1.234375 -16.597656 2.09375 -19.8125 3.8125 -21.8125 C 5.539062 -23.820312 8.34375 -24.828125 12.21875 -24.828125 C 13.164062 -24.828125 14.054688 -24.769531 14.890625 -24.65625 C 15.734375 -24.539062 16.484375 -24.382812 17.140625 -24.1875 Z M 13.25 -18.171875 C 11.28125 -18.171875 10.015625 -17.800781 9.453125 -17.0625 C 8.898438 -16.320312 8.625 -14.691406 8.625 -12.171875 C 8.625 -9.765625 8.867188 -8.191406 9.359375 -7.453125 C 9.847656 -6.722656 11 -6.359375 12.8125 -6.359375 C 13.65625 -6.359375 14.445312 -6.421875 15.1875 -6.546875 C 15.925781 -6.679688 16.578125 -6.878906 17.140625 -7.140625 L 17.140625 -17.53125 C 16.648438 -17.757812 16.082031 -17.921875 15.4375 -18.015625 C 14.800781 -18.117188 14.070312 -18.171875 13.25 -18.171875 Z M 13.25 -18.171875 "/></g></g></g><g fill="#38b6ff" fill-opacity="1"><g transform="translate(317.833251, 189.313661)"><g><path d="M 5.421875 1.671875 C 6.566406 1.671875 7.410156 1.515625 7.953125 1.203125 C 8.492188 0.890625 8.863281 0.320312 9.0625 -0.5 L -0.09375 -24.328125 L 8.125 -24.328125 L 12.8125 -7.6875 L 17.234375 -24.328125 L 25.171875 -24.328125 L 16.5 0.5 C 15.582031 3.15625 14.375 5.066406 12.875 6.234375 C 11.382812 7.398438 9.40625 7.984375 6.9375 7.984375 C 6.25 7.984375 5.535156 7.945312 4.796875 7.875 C 4.054688 7.8125 3.394531 7.710938 2.8125 7.578125 L 2.8125 1.578125 C 3.070312 1.609375 3.363281 1.628906 3.6875 1.640625 C 4.019531 1.660156 4.597656 1.671875 5.421875 1.671875 Z M 5.421875 1.671875 "/></g></g></g></svg>